<svg width="69" height="73" viewBox="0 0 69 73" fill="none" xmlns="http://www.w3.org/2000/svg">
<path d="M29.9926 64.1821C-0.879076 54.8903 20.8922 25.5466 32.6045 13.328C34.7398 11.1003 37.9547 10.0557 40.7175 11.4304C61.5274 21.7849 62.1004 73.846 29.9926 64.1821Z" fill="url(#paint0_linear_254_65)"/>
<path d="M4.1 23.1707V42.9672C4.1 44.3013 5.01862 45.4275 6.15179 45.4275H34.8482C35.9885 45.4275 36.9 44.326 36.9 42.9672V23.1707C36.9 21.8366 35.9814 20.7104 34.8482 20.7104H6.15179C5.01149 20.7104 4.1 21.8119 4.1 23.1707ZM0 23.1707C0 19.0753 2.75241 15.7669 6.15179 15.7669H34.8482C38.24 15.7669 41 19.0995 41 23.1707V42.9672C41 47.0626 38.2476 50.371 34.8482 50.371H6.15179C2.76001 50.371 0 47.0384 0 42.9672V23.1707ZM34.1667 15.7669H29.6111C29.6111 10.3066 25.5319 5.88008 20.5 5.88008C15.4681 5.88008 11.3889 10.3066 11.3889 15.7669H6.83333C6.83333 7.5764 12.9521 0.936646 20.5 0.936646C28.0479 0.936646 34.1667 7.5764 34.1667 15.7669ZM20.5 35.5407C21.758 35.5407 22.7778 34.434 22.7778 33.069C22.7778 31.7039 21.758 30.5972 20.5 30.5972C19.242 30.5972 18.2222 31.7039 18.2222 33.069C18.2222 34.434 19.242 35.5407 20.5 35.5407Z" fill="#454646"/>
<defs>
<linearGradient id="paint0_linear_254_65" x1="24.7944" y1="62.3225" x2="50.9821" y2="17.3653" gradientUnits="userSpaceOnUse">
<stop stop-color="#FF5CE5" stop-opacity="0.28"/>
<stop offset="1" stop-color="#A45FAA" stop-opacity="0"/>
</linearGradient>
</defs>
</svg>
