<svg width="71" height="78" viewBox="0 0 71 78" fill="none" xmlns="http://www.w3.org/2000/svg">
<path d="M31.2846 69.1821C0.412916 59.8903 22.1842 30.5466 33.8965 18.328C36.0318 16.1003 39.2467 15.0557 42.0095 16.4304C62.8194 26.7849 63.3924 78.846 31.2846 69.1821Z" fill="url(#paint0_linear_254_52)"/>
<path d="M22.6835 42.332C22.3846 41.6194 21.7656 41.0994 21.0165 41.007C20.3822 40.9284 19.7611 40.7809 19.1705 40.5683C18.9057 40.4716 18.6572 40.3661 18.4271 40.2531L18.8094 39.1224C19.0793 39.2531 19.3574 39.3727 19.6421 39.4809L19.6539 39.4854L19.666 39.4897C20.5796 39.8173 21.4788 39.9835 22.3378 39.9835C23.2004 39.9835 23.8257 39.858 24.3061 39.589L24.3348 39.5729L24.3628 39.5552C25.0905 39.1021 25.5081 38.3233 25.5081 37.418C25.5081 36.4135 25.0087 35.5796 24.1376 35.1291C23.6995 34.8978 23.0772 34.677 22.1808 34.4352C21.2614 34.1829 20.489 33.9152 19.89 33.641C19.4522 33.4261 19.0724 33.083 18.73 32.5925C18.4353 32.1548 18.2861 31.4966 18.2861 30.6352C18.2861 29.5959 18.5558 28.7382 19.1107 28.0128C19.6047 27.3771 20.3061 26.9453 21.2475 26.7032C21.9459 26.5236 22.4905 25.9827 22.7354 25.2842C23.0123 25.9922 23.6014 26.5187 24.3345 26.6455C24.9468 26.7514 25.509 26.9201 26.0144 27.1485L25.6627 28.2565C24.7082 27.8408 23.7689 27.6307 22.8604 27.6307C19.8432 27.6307 19.6904 29.8895 19.6904 30.3423C19.6904 31.3239 20.1789 32.1469 21.0307 32.6007L21.0546 32.6135L21.0787 32.6253C21.509 32.8337 22.1195 33.0345 23.0005 33.2573C23.9114 33.4808 24.6711 33.7367 25.268 34.0204L25.2804 34.0263L25.2928 34.0319C25.736 34.232 26.1162 34.5662 26.4549 35.0538L26.4604 35.0613L26.4658 35.0692C26.762 35.4846 26.9124 36.1271 26.9124 36.979C26.9124 37.9622 26.65 38.7944 26.1101 39.5234C25.6418 40.1558 24.9881 40.5935 24.111 40.8615C23.4338 41.0686 22.9084 41.6305 22.6835 42.332Z" fill="#454646"/>
<path d="M23.4479 45.2745H21.9941C21.6689 45.2745 21.4053 44.9812 21.4053 44.6192V43.3037C21.4053 42.9577 21.1634 42.6733 20.8543 42.635C20.1181 42.5442 19.4062 42.3748 18.7181 42.1271C18.0496 41.8827 17.4705 41.5931 16.9807 41.2572C16.7556 41.1029 16.6737 40.7897 16.7667 40.5145L17.764 37.5638C17.8983 37.1667 18.3316 37.0146 18.6652 37.2201C19.1157 37.4969 19.6 37.7338 20.1175 37.9304C20.889 38.2069 21.6293 38.3452 22.3383 38.3452C22.9479 38.3452 23.3835 38.2721 23.6447 38.1257C23.9059 37.9628 24.0366 37.7269 24.0366 37.418C24.0366 37.0602 23.8624 36.7918 23.514 36.6129C23.1782 36.434 22.6181 36.2388 21.8346 36.0274C20.8268 35.7509 19.9871 35.458 19.3153 35.149C18.6435 34.8237 18.0587 34.3031 17.5611 33.5875C17.0634 32.8556 16.8146 31.8713 16.8146 30.6351C16.8146 29.2037 17.2065 27.9757 17.9901 26.9508C18.6966 26.0419 19.6719 25.4273 20.9165 25.1072C21.1966 25.0351 21.4053 24.7645 21.4053 24.4447V22.9949C21.4053 22.6328 21.6689 22.3396 21.9941 22.3396H23.4479C23.773 22.3396 24.0366 22.6328 24.0366 22.9949V24.3618C24.0366 24.6966 24.2637 24.9755 24.5608 25.0269C25.6511 25.2153 26.6091 25.5721 27.4346 26.0973C27.6689 26.2464 27.7619 26.5635 27.6719 26.8466L26.7386 29.7852C26.6151 30.1748 26.203 30.3396 25.8715 30.1535C24.8201 29.5638 23.8168 29.2689 22.8609 29.2689C21.7287 29.2689 21.1625 29.6267 21.1625 30.3422C21.1625 30.684 21.3307 30.9441 21.6665 31.1233C22.0025 31.2858 22.5559 31.4647 23.3274 31.66C24.3226 31.9041 25.1625 32.1885 25.8467 32.5138C26.5309 32.8228 27.1218 33.3352 27.6197 34.0511C28.1296 34.7667 28.3848 35.7427 28.3848 36.9789C28.3848 38.3452 28.0052 39.5407 27.2462 40.5656C26.5852 41.4587 25.6701 42.0839 24.5013 42.4413C24.2326 42.5236 24.0366 42.7883 24.0366 43.0983V44.6192C24.0366 44.9812 23.773 45.2745 23.4479 45.2745Z" fill="#454646"/>
<path fill-rule="evenodd" clip-rule="evenodd" d="M16.2432 2.68121H28.9901C32.2549 2.68121 30.462 8.13316 29.1402 11.4587L27.6359 15.2724L27.4327 15.7868C28.8575 15.7099 30.2667 16.149 31.4481 17.0384C35.8681 21.5396 39.4554 26.9587 42.0079 32.9913C43.0025 35.2218 43.3971 37.725 43.1441 40.1994C42.8404 46.5061 38.2942 51.5318 32.6257 51.8273H12.6076C6.9376 51.5406 2.38466 46.5202 2.07451 40.2125C1.82146 37.7381 2.21606 35.2349 3.21084 33.0044C5.76637 26.9659 9.35858 21.5419 13.7851 17.0384C14.9668 16.149 16.3757 15.7099 17.8005 15.7868L17.5649 15.1938L16.0931 11.4587C14.7772 8.13316 12.9756 2.68121 16.2432 2.68121Z" stroke="#454646" stroke-width="4" stroke-linecap="round" stroke-linejoin="round"/>
<path d="M27.433 18.2441C28.6836 18.2441 29.6975 17.1439 29.6975 15.7868C29.6975 14.4297 28.6836 13.3295 27.433 13.3295V18.2441ZM17.8008 13.3295C16.5502 13.3295 15.5363 14.4297 15.5363 15.7868C15.5363 17.1439 16.5502 18.2441 17.8008 18.2441V13.3295ZM35.5227 14.6396C36.6064 13.9622 36.9789 12.4598 36.3545 11.2838C35.7301 10.1078 34.3458 9.70367 33.2621 10.3811L35.5227 14.6396ZM27.6362 15.2724L28.0731 17.6835L28.0798 17.6821L27.6362 15.2724ZM17.5653 15.1938L18.0342 12.7896L18.0136 12.785L17.5653 15.1938ZM11.9369 10.3596C10.8423 9.70322 9.46454 10.134 8.85962 11.3218C8.25467 12.5096 8.65162 14.0046 9.74625 14.6611L11.9369 10.3596ZM27.433 13.3295H17.8008V18.2441H27.433V13.3295ZM33.2621 10.3811C31.369 11.5644 29.3201 12.4017 27.1927 12.8627L28.0798 17.6821C30.6924 17.116 33.2054 16.0883 35.5227 14.6396L33.2621 10.3811ZM27.1993 12.8612C24.1697 13.5077 21.0556 13.4833 18.0342 12.7896L17.0965 17.5978C20.7147 18.4286 24.4448 18.4577 28.0731 17.6835L27.1993 12.8612ZM18.0136 12.785C15.8919 12.3202 13.8435 11.503 11.9369 10.3596L9.74625 14.6611C12.0555 16.0459 14.5401 17.0378 17.1172 17.6025L18.0136 12.785Z" fill="#454646"/>
<defs>
<linearGradient id="paint0_linear_254_52" x1="26.0864" y1="67.3225" x2="52.2741" y2="22.3653" gradientUnits="userSpaceOnUse">
<stop stop-color="#FFDB5C" stop-opacity="0.28"/>
<stop offset="1" stop-color="#AA8C5F" stop-opacity="0"/>
</linearGradient>
</defs>
</svg>
