<svg width="24" height="24" viewBox="0 0 24 24" fill="none" xmlns="http://www.w3.org/2000/svg">
<path fill-rule="evenodd" clip-rule="evenodd" d="M12.723 19.219C12.3576 19.767 11.8626 20.2163 11.2818 20.527C10.7011 20.8377 10.0526 21.0002 9.394 21H9.181C8.8905 21 8.60347 20.9368 8.33989 20.8146C8.07631 20.6925 7.8425 20.5144 7.65473 20.2928C7.46695 20.0711 7.32972 19.8112 7.25257 19.5311C7.17542 19.2511 7.16021 18.9575 7.208 18.671L7.82 15H5.44C4.99616 15 4.55784 14.9016 4.15664 14.7117C3.75545 14.5219 3.40138 14.2454 3.11996 13.9022C2.83854 13.559 2.63677 13.1576 2.52922 12.727C2.42167 12.2963 2.41101 11.8472 2.498 11.412L3.698 5.412C3.83395 4.73183 4.20139 4.11979 4.73778 3.68003C5.27417 3.24026 5.94638 2.99996 6.64 3H18C18.7956 3 19.5587 3.31607 20.1213 3.87868C20.6839 4.44129 21 5.20435 21 6V14C21 14.2652 20.8946 14.5196 20.7071 14.7071C20.5196 14.8946 20.2652 15 20 15H16.07C15.9054 15 15.7434 15.0406 15.5982 15.1182C15.4531 15.1958 15.3293 15.3081 15.238 15.445L12.723 19.219ZM17 13H19V6C19 5.73478 18.8946 5.48043 18.7071 5.29289C18.5196 5.10536 18.2652 5 18 5H17V13Z" fill="#CF314E"/>
</svg>
