<svg width="223" height="126" viewBox="0 0 223 126" fill="none" xmlns="http://www.w3.org/2000/svg">
<path d="M26.5126 75.2838H35.5871C43.237 75.2838 47.5114 71.3329 47.5114 64.2084C47.5114 57.0844 43.237 53.1335 35.5871 53.1335H26.5126V75.2838ZM31.6538 71.0218V57.3645H35.5871C39.83 57.3645 42.2152 59.7908 42.2152 64.2084C42.2152 68.5949 39.83 71.0218 35.5871 71.0218H31.6538Z" fill="white"/>
<path d="M51.0729 57.1775C52.7455 57.1775 53.8913 56.0886 53.8913 54.4711C53.8913 52.8225 52.7455 51.7336 51.0729 51.7336C49.4003 51.7336 48.2854 52.8225 48.2854 54.4711C48.2854 56.0886 49.4003 57.1775 51.0729 57.1775ZM48.7191 75.2839H53.4267V59.3553H48.7191V75.2839Z" fill="white"/>
<path d="M54.9752 81.8172H59.7136V72.2353H59.7451C60.8599 74.5371 62.78 75.7505 65.2269 75.7505C69.3767 75.7505 72.2882 72.3593 72.2882 67.3195C72.2882 62.2488 69.3767 58.8885 65.2269 58.8885C62.7183 58.8885 60.7976 60.102 59.6828 62.4043H59.6519L58.9393 59.3552H54.9752V81.8172ZM63.5234 71.7061C61.2005 71.7061 59.5279 69.8084 59.5279 67.3195C59.5279 64.7997 61.2005 62.902 63.5234 62.902C65.8772 62.902 67.5498 64.7687 67.5498 67.3195C67.5498 69.8084 65.8772 71.7061 63.5234 71.7061Z" fill="white"/>
<path d="M73.1554 75.2839H77.8938V52.2003H73.1554V75.2839Z" fill="white"/>
<path d="M87.5571 75.9061C92.8841 75.9061 96.3842 72.5149 96.3842 67.3196C96.3842 62.1243 92.8841 58.733 87.5571 58.733C82.261 58.733 78.7615 62.1243 78.7615 67.3196C78.7615 72.5149 82.261 75.9061 87.5571 75.9061ZM87.5571 71.9553C85.0176 71.9553 83.4067 70.1816 83.4067 67.3196C83.4067 64.4576 85.0176 62.6845 87.5571 62.6845C90.0966 62.6845 91.7075 64.4576 91.7075 67.3196C91.7075 70.1816 90.0966 71.9553 87.5571 71.9553Z" fill="white"/>
<path d="M97.2202 75.2839H101.959V66.5418C101.959 64.364 103.105 62.902 105.056 62.902C106.667 62.902 107.627 63.9283 107.627 65.671V75.2839H112.334V66.5418C112.334 64.364 113.48 62.902 115.462 62.902C117.042 62.902 118.002 63.9283 118.002 65.671V75.2839H122.741V64.6131C122.741 61.0043 120.883 58.8885 117.754 58.8885C115.338 58.8885 113.233 60.0084 112.025 62.3734H111.994C111.312 60.102 109.671 58.8885 107.193 58.8885C104.746 58.8885 102.64 60.133 101.773 62.2488H101.742L101.029 59.3552H97.2202V75.2839Z" fill="white"/>
<path d="M128.935 75.7506C131.598 75.7506 133.674 74.4441 134.695 72.5465H134.727L134.789 73.1061C135.005 74.5681 136.492 75.7506 138.412 75.7506C139.867 75.7506 141.509 75.2529 142.469 74.2886L141.354 71.7687C141.014 72.2038 140.518 72.4839 140.115 72.4839C139.62 72.4839 139.31 72.0482 139.31 71.333V65.1728C139.31 61.1909 136.306 58.733 131.66 58.733C127.108 58.733 124.041 61.129 123.763 64.4266L128.378 65.1418C128.532 63.5553 129.864 62.1862 131.784 62.1862C133.488 62.1862 134.665 63.0886 134.665 64.4576C134.665 65.1108 134.169 65.5465 133.426 65.6085L130.359 65.9822C125.621 66.4798 123.267 68.4704 123.267 71.2085C123.267 73.9459 125.621 75.7506 128.935 75.7506ZM130.731 72.4839C129.152 72.4839 128.005 71.7371 128.005 70.6482C128.005 69.6219 128.904 68.7816 131.536 68.4704L134.572 68.1283V68.7816C134.572 70.9283 132.961 72.4839 130.731 72.4839Z" fill="white"/>
<path d="M143.089 75.2838H148.354V67.8487H153.433C158.605 67.8487 162.044 64.8932 162.044 60.475C162.044 56.0885 158.637 53.1335 153.495 53.1335H143.089V75.2838ZM148.354 63.8973V57.0534H152.659C155.167 57.0534 156.747 58.4218 156.747 60.475C156.747 62.5289 155.136 63.8973 152.659 63.8973H148.354Z" fill="white"/>
<path d="M167.711 75.7506C170.374 75.7506 172.45 74.4441 173.471 72.5465H173.503L173.565 73.1061C173.781 74.5681 175.268 75.7506 177.188 75.7506C178.644 75.7506 180.285 75.2529 181.245 74.2886L180.131 71.7687C179.79 72.2038 179.294 72.4839 178.892 72.4839C178.396 72.4839 178.086 72.0482 178.086 71.333V65.1728C178.086 61.1909 175.082 58.733 170.437 58.733C165.884 58.733 162.818 61.129 162.539 64.4266L167.154 65.1418C167.308 63.5553 168.64 62.1862 170.561 62.1862C172.264 62.1862 173.441 63.0886 173.441 64.4576C173.441 65.1108 172.945 65.5465 172.202 65.6085L169.135 65.9822C164.397 66.4798 162.043 68.4704 162.043 71.2085C162.043 73.9459 164.397 75.7506 167.711 75.7506ZM169.507 72.4839C167.928 72.4839 166.782 71.7371 166.782 70.6482C166.782 69.6219 167.68 68.7816 170.313 68.4704L173.348 68.1283V68.7816C173.348 70.9283 171.737 72.4839 169.507 72.4839Z" fill="white"/>
<path d="M187.656 82.4394C193.262 82.4394 196.948 79.2657 196.948 74.195V59.3552H192.209V68.533C192.209 70.6172 190.754 72.0482 188.895 72.0482C187.13 72.0482 186.077 70.7108 186.077 68.7815V59.3552H181.369V69.6219C181.369 73.4172 183.568 75.9061 187.099 75.9061C189.267 75.9061 191.218 74.6926 192.209 72.6704H192.241V74.0394C192.241 76.7774 190.289 78.488 187.254 78.488C184.962 78.488 182.794 77.5236 181.493 76.0617L179.759 79.5149C181.339 81.288 184.312 82.4394 187.656 82.4394Z" fill="white"/>
<mask id="mask0_113_95" style="mask-type:luminance" maskUnits="userSpaceOnUse" x="20" y="54" width="3" height="4">
<path d="M20.4417 54.4445H22.3V57.9104H20.4417V54.4445Z" fill="white"/>
</mask>
<g mask="url(#mask0_113_95)">
<path d="M20.4888 57.747C20.4918 57.795 20.51 57.8363 20.5438 57.8709C20.5777 57.9056 20.6182 57.9244 20.666 57.9281H21.8112C21.9594 57.3381 21.764 56.0359 21.7537 55.9684C22.0719 56.9151 22.0374 57.6024 21.9975 57.9281H22.0834C22.1312 57.9244 22.1717 57.905 22.2056 57.8709C22.2388 57.8363 22.2576 57.7956 22.2606 57.7476C22.2733 57.651 22.2794 57.5538 22.28 57.4559C22.2794 57.2846 22.2588 57.115 22.2177 56.9486C22.1699 56.7517 22.1191 56.5566 22.0791 56.3573L21.7313 54.5848H20.8971L20.6927 56.0189C20.6479 56.3306 20.6007 56.6423 20.5281 56.9455C20.4652 57.2092 20.4513 57.4748 20.4864 57.7433" fill="black"/>
</g>
<path d="M21.3744 54.1273C21.4156 54.1273 21.4506 54.1127 21.4791 54.0836C21.5081 54.055 21.5226 54.0198 21.5232 53.9784V48.105C21.5244 48.0843 21.5214 48.0643 21.5148 48.0448C21.5075 48.0254 21.4972 48.0084 21.4833 47.9932C21.4694 47.978 21.4531 47.9665 21.4337 47.9586C21.415 47.9501 21.3956 47.9464 21.375 47.9464C21.3545 47.9464 21.3345 47.9501 21.3157 47.9586C21.297 47.9665 21.2807 47.978 21.2667 47.9932C21.2528 48.0084 21.2419 48.0254 21.2353 48.0448C21.2286 48.0643 21.2256 48.0843 21.2268 48.105V53.9784C21.2268 54.0198 21.2413 54.0544 21.2704 54.0836C21.2994 54.1121 21.3339 54.1267 21.3744 54.1273Z" fill="black"/>
<path d="M20.8143 54.3101C20.8143 54.3849 20.8282 54.4566 20.8567 54.5252C20.8851 54.5939 20.9256 54.6546 20.9777 54.7069C21.0303 54.7598 21.0908 54.8005 21.1591 54.829C21.2275 54.857 21.2989 54.8716 21.3727 54.8716C21.4471 54.8716 21.5185 54.857 21.5868 54.829C21.6552 54.8005 21.7157 54.7598 21.7677 54.7069C21.8203 54.6546 21.8609 54.5939 21.8893 54.5252C21.9171 54.4566 21.9316 54.3849 21.9316 54.3101C21.9316 54.236 21.9171 54.1643 21.8893 54.0956C21.8609 54.027 21.8203 53.9662 21.7677 53.9133C21.7157 53.8611 21.6552 53.8204 21.5868 53.7918C21.5185 53.7632 21.4471 53.7493 21.3727 53.7493C21.2989 53.7493 21.2275 53.7632 21.1591 53.7918C21.0908 53.8204 21.0303 53.8611 20.9777 53.9133C20.9256 53.9662 20.8851 54.027 20.8567 54.0956C20.8282 54.1643 20.8143 54.236 20.8143 54.3101Z" fill="black"/>
<path d="M21.8052 54.2513C21.8052 54.1528 21.781 54.0611 21.7332 53.976C21.6854 53.8903 21.6195 53.8217 21.536 53.7712C21.5735 53.7834 21.6086 53.7992 21.6424 53.8192C21.6763 53.8387 21.7078 53.8618 21.7368 53.8879C21.7658 53.9146 21.7919 53.9438 21.8142 53.9754C21.8372 54.007 21.8566 54.041 21.8723 54.0769C21.8886 54.1127 21.9001 54.1504 21.9086 54.1887C21.9165 54.227 21.9207 54.2659 21.9201 54.3054C21.9201 54.3442 21.9159 54.3831 21.908 54.4214C21.8995 54.4603 21.888 54.4974 21.8717 54.5332C21.856 54.5691 21.8366 54.6025 21.8136 54.6347C21.7906 54.6663 21.7646 54.6955 21.7356 54.7216C21.706 54.7477 21.6745 54.7708 21.6406 54.7903C21.6074 54.8097 21.5717 54.8255 21.5342 54.8376C21.4973 54.8498 21.4591 54.8583 21.4204 54.8626C21.3811 54.8662 21.3424 54.8662 21.3037 54.8626C21.265 54.8583 21.2269 54.8504 21.1894 54.8383C21.1525 54.8261 21.1168 54.8103 21.0829 54.7909C21.1246 54.8036 21.1676 54.8115 21.2111 54.8139C21.2547 54.817 21.2982 54.8146 21.3418 54.8067C21.3847 54.7994 21.4265 54.7866 21.4664 54.7696C21.5069 54.752 21.5444 54.7307 21.5795 54.704C21.6146 54.6778 21.6461 54.6481 21.6745 54.614C21.7023 54.5806 21.7265 54.5442 21.7459 54.5047C21.7658 54.4652 21.7804 54.4245 21.79 54.3813C21.8003 54.3388 21.8052 54.295 21.8052 54.2513Z" fill="black"/>
<mask id="mask1_113_95" style="mask-type:luminance" maskUnits="userSpaceOnUse" x="19" y="39" width="32" height="15">
<path d="M19.8289 39.827H50.8997V53.5111H19.8289V39.827Z" fill="white"/>
</mask>
<g mask="url(#mask1_113_95)">
<path d="M19.9983 47.5824C19.9493 47.6073 19.91 47.6437 19.8821 47.6911C19.8537 47.7391 19.8404 47.7908 19.8422 47.8461C19.8434 47.9014 19.8604 47.9524 19.8912 47.998C19.9221 48.0442 19.9632 48.0782 20.014 48.1001L26.1794 50.7634L32.3388 53.4248C34.3532 53.2182 36.3682 53.2182 38.3832 53.4248L44.5419 50.7634L50.708 48.1001C50.7588 48.0782 50.7999 48.0442 50.8314 47.998C50.8622 47.9524 50.8786 47.9014 50.8804 47.8461C50.8816 47.7908 50.8683 47.7391 50.8404 47.6911C50.812 47.6437 50.7733 47.6073 50.7237 47.5824L35.4892 39.8648C35.4033 39.8216 35.318 39.8216 35.2327 39.8648L19.9983 47.5824Z" fill="#111111"/>
</g>
<mask id="mask2_113_95" style="mask-type:luminance" maskUnits="userSpaceOnUse" x="19" y="39" width="32" height="10">
<path d="M19.8289 39.827H50.8997V48.3777H19.8289V39.827Z" fill="white"/>
</mask>
<g mask="url(#mask2_113_95)">
<path d="M35.4892 40.2944C35.4033 40.2512 35.318 40.2512 35.2328 40.2944L20.4828 48.3006C20.4605 48.3122 19.9572 48.0375 19.939 48.0515C19.9215 48.0357 19.9057 48.0181 19.893 47.9992C19.8797 47.9798 19.8688 47.9591 19.861 47.9372C19.8525 47.9154 19.8471 47.8923 19.8446 47.8692C19.8416 47.8461 19.8422 47.823 19.8452 47.7993C19.8483 47.7762 19.8543 47.7537 19.8628 47.7319C19.8713 47.71 19.8821 47.6899 19.8961 47.6705C19.9094 47.6516 19.9251 47.6346 19.9426 47.6194C19.9608 47.6043 19.9801 47.5915 20.0007 47.5812L35.2328 39.8648C35.318 39.8216 35.4033 39.8216 35.4892 39.8648L50.7237 47.5824C50.7449 47.5927 50.7642 47.6055 50.7818 47.6207C50.7993 47.6358 50.815 47.6529 50.829 47.6717C50.8423 47.6911 50.8538 47.7112 50.8622 47.7331C50.8707 47.7549 50.8768 47.7774 50.8798 47.8005C50.8828 47.8242 50.8828 47.8473 50.8804 47.8704C50.8774 47.8941 50.8725 47.9166 50.864 47.9385C50.8556 47.9603 50.8453 47.981 50.832 48.0004C50.8187 48.0193 50.8036 48.0369 50.786 48.0527C50.7685 48.0375 50.2688 48.3122 50.2464 48.3018L35.4892 40.2944Z" fill="#269C72"/>
</g>
<path d="M26.1619 49.638V54.7549C26.1619 55.2064 26.5436 55.5309 26.9235 55.4027C28.6802 54.8102 30.4786 54.4067 32.3194 54.1922C34.3344 53.9577 36.3488 53.9577 38.3638 54.1922C40.2058 54.4067 42.0061 54.8102 43.7646 55.4027C44.1451 55.5309 44.5256 55.2064 44.5256 54.7549V49.638C44.5256 49.3415 44.355 49.0771 44.1058 48.9915C43.4035 48.7429 42.6915 48.5254 41.971 48.3376C41.2499 48.1499 40.5228 47.9931 39.7884 47.8667C39.0547 47.7409 38.3166 47.6461 37.5744 47.583C36.8322 47.5198 36.0893 47.4882 35.3446 47.4882C34.5994 47.4882 33.8565 47.5198 33.1143 47.583C32.372 47.6461 31.634 47.7409 30.9003 47.8667C30.1659 47.9931 29.4388 48.1499 28.7177 48.3376C27.9972 48.5254 27.2852 48.7429 26.5829 48.9915C26.3349 49.079 26.1625 49.3415 26.1625 49.638" fill="#111111"/>
<path d="M43.6013 49.9412C42.902 49.6939 42.1942 49.477 41.4768 49.2898C40.7599 49.1027 40.0358 48.9465 39.3057 48.8207C38.5756 48.6943 37.8412 48.5995 37.1026 48.5357C36.3646 48.4719 35.6247 48.4397 34.8843 48.4385C34.1433 48.4373 33.4034 48.4671 32.6648 48.5284C31.9262 48.5898 31.1918 48.6822 30.4611 48.8061C29.7303 48.9295 29.0062 49.0838 28.2882 49.2685C27.5707 49.4533 26.8618 49.6678 26.1619 49.9126V49.6392C26.1619 49.3427 26.3325 49.0784 26.5823 48.9927C27.2846 48.7448 27.9966 48.5266 28.7171 48.3389C29.4381 48.1511 30.1653 47.9943 30.8996 47.8679C31.6334 47.7422 32.3714 47.6474 33.1137 47.5848C33.8559 47.5216 34.5988 47.49 35.3434 47.49C36.0887 47.49 36.8316 47.5216 37.5738 47.5848C38.316 47.6474 39.0541 47.7422 39.7878 47.8679C40.5222 47.9943 41.2493 48.1511 41.9704 48.3389C42.6909 48.5266 43.4029 48.7448 44.1052 48.9927C44.3532 49.0802 44.525 49.3427 44.525 49.6392V54.7549C44.525 55.1031 44.2988 55.3741 44.0205 55.4221V50.5865C44.0205 50.29 43.8505 50.0251 43.6013 49.94" fill="#269C72"/>
</svg>
