<svg width="24" height="24" viewBox="0 0 24 24" fill="none" xmlns="http://www.w3.org/2000/svg">
<rect width="24" height="24" fill="white" fill-opacity="0.4"/>
<path fill-rule="evenodd" clip-rule="evenodd" d="M11.277 4.781C11.6424 4.23301 12.1374 3.78372 12.7182 3.47303C13.2989 3.16233 13.9474 2.99985 14.606 3H14.819C15.1095 2.99996 15.3965 3.06321 15.6601 3.18535C15.9237 3.30749 16.1575 3.48558 16.3453 3.70723C16.533 3.92889 16.6703 4.1888 16.7474 4.46887C16.8246 4.74894 16.8398 5.04245 16.792 5.329L16.18 9H18.56C19.0038 8.99997 19.4422 9.09843 19.8434 9.28827C20.2445 9.47811 20.5986 9.75461 20.88 10.0978C21.1615 10.441 21.3632 10.8424 21.4708 11.273C21.5783 11.7037 21.589 12.1528 21.502 12.588L20.302 18.588C20.166 19.2682 19.7986 19.8802 19.2622 20.32C18.7258 20.7597 18.0536 21 17.36 21H6C5.20435 21 4.44129 20.6839 3.87868 20.1213C3.31607 19.5587 3 18.7956 3 18V10C3 9.73478 3.10536 9.48043 3.29289 9.29289C3.48043 9.10536 3.73478 9 4 9H7.93C8.09459 9.00002 8.25665 8.95942 8.40178 8.88179C8.54692 8.80417 8.67065 8.69192 8.762 8.555L11.277 4.781ZM7 11H5V18C5 18.2652 5.10536 18.5196 5.29289 18.7071C5.48043 18.8946 5.73478 19 6 19H7V11Z" fill="#269C72"/>
</svg>
