<svg width="223" height="127" viewBox="0 0 223 127" fill="none" xmlns="http://www.w3.org/2000/svg">
<path d="M26.5127 75.4155H35.5872C43.2371 75.4155 47.5115 71.4647 47.5115 64.3401C47.5115 57.2161 43.2371 53.2653 35.5872 53.2653H26.5127V75.4155ZM31.654 71.1535V57.4962H35.5872C39.8301 57.4962 42.2154 59.9226 42.2154 64.3401C42.2154 68.7266 39.8301 71.1535 35.5872 71.1535H31.654Z" fill="#269C72"/>
<path d="M51.0731 57.3092C52.7458 57.3092 53.8915 56.2203 53.8915 54.6028C53.8915 52.9542 52.7458 51.8654 51.0731 51.8654C49.4005 51.8654 48.2856 52.9542 48.2856 54.6028C48.2856 56.2203 49.4005 57.3092 51.0731 57.3092ZM48.7194 75.4156H53.4269V59.487H48.7194V75.4156Z" fill="#269C72"/>
<path d="M54.9751 81.9489H59.7135V72.3671H59.7449C60.8598 74.6688 62.7799 75.8822 65.2268 75.8822C69.3766 75.8822 72.2881 72.491 72.2881 67.4513C72.2881 62.3805 69.3766 59.0203 65.2268 59.0203C62.7182 59.0203 60.7975 60.2337 59.6826 62.5361H59.6518L58.9392 59.4869H54.9751V81.9489ZM63.5233 71.8378C61.2004 71.8378 59.5278 69.9401 59.5278 67.4513C59.5278 64.9314 61.2004 63.0337 63.5233 63.0337C65.8771 63.0337 67.5497 64.9004 67.5497 67.4513C67.5497 69.9401 65.8771 71.8378 63.5233 71.8378Z" fill="#269C72"/>
<path d="M73.1553 75.4156H77.8937V52.332H73.1553V75.4156Z" fill="#269C72"/>
<path d="M87.5569 76.0378C92.8838 76.0378 96.3839 72.6466 96.3839 67.4513C96.3839 62.256 92.8838 58.8647 87.5569 58.8647C82.2607 58.8647 78.7612 62.256 78.7612 67.4513C78.7612 72.6466 82.2607 76.0378 87.5569 76.0378ZM87.5569 72.087C85.0174 72.087 83.4065 70.3133 83.4065 67.4513C83.4065 64.5893 85.0174 62.8162 87.5569 62.8162C90.0963 62.8162 91.7073 64.5893 91.7073 67.4513C91.7073 70.3133 90.0963 72.087 87.5569 72.087Z" fill="#269C72"/>
<path d="M97.2202 75.4156H101.959V66.6735C101.959 64.4957 103.105 63.0337 105.056 63.0337C106.667 63.0337 107.627 64.06 107.627 65.8027V75.4156H112.334V66.6735C112.334 64.4957 113.48 63.0337 115.462 63.0337C117.042 63.0337 118.002 64.06 118.002 65.8027V75.4156H122.741V64.7448C122.741 61.1361 120.883 59.0203 117.754 59.0203C115.338 59.0203 113.233 60.1401 112.025 62.5051H111.994C111.312 60.2337 109.671 59.0203 107.193 59.0203C104.746 59.0203 102.64 60.2647 101.773 62.3805H101.742L101.029 59.4869H97.2202V75.4156Z" fill="#269C72"/>
<path d="M128.935 75.8823C131.598 75.8823 133.674 74.5759 134.695 72.6782H134.727L134.789 73.2378C135.005 74.6998 136.492 75.8823 138.412 75.8823C139.867 75.8823 141.509 75.3846 142.469 74.4203L141.354 71.9004C141.014 72.3355 140.518 72.6156 140.115 72.6156C139.62 72.6156 139.31 72.1799 139.31 71.4647V65.3045C139.31 61.3226 136.306 58.8647 131.66 58.8647C127.108 58.8647 124.041 61.2607 123.763 64.5583L128.378 65.2735C128.532 63.687 129.864 62.318 131.784 62.318C133.488 62.318 134.665 63.2203 134.665 64.5893C134.665 65.2425 134.169 65.6782 133.426 65.7402L130.359 66.1139C125.621 66.6115 123.267 68.6022 123.267 71.3402C123.267 74.0776 125.621 75.8823 128.935 75.8823ZM130.731 72.6156C129.152 72.6156 128.005 71.8688 128.005 70.7799C128.005 69.7536 128.904 68.9133 131.536 68.6022L134.572 68.2601V68.9133C134.572 71.0601 132.961 72.6156 130.731 72.6156Z" fill="#269C72"/>
<path d="M143.089 75.4155H148.354V67.9805H153.433C158.605 67.9805 162.044 65.0249 162.044 60.6068C162.044 56.2202 158.637 53.2653 153.495 53.2653H143.089V75.4155ZM148.354 64.029V57.1851H152.659C155.167 57.1851 156.747 58.5535 156.747 60.6068C156.747 62.6606 155.137 64.029 152.659 64.029H148.354Z" fill="#269C72"/>
<path d="M167.711 75.8823C170.374 75.8823 172.45 74.5759 173.471 72.6782H173.503L173.564 73.2378C173.781 74.6998 175.268 75.8823 177.188 75.8823C178.643 75.8823 180.285 75.3846 181.245 74.4203L180.13 71.9004C179.79 72.3355 179.294 72.6156 178.891 72.6156C178.396 72.6156 178.086 72.1799 178.086 71.4647V65.3045C178.086 61.3226 175.082 58.8647 170.436 58.8647C165.884 58.8647 162.817 61.2607 162.538 64.5583L167.153 65.2735C167.308 63.687 168.64 62.318 170.56 62.318C172.264 62.318 173.44 63.2203 173.44 64.5893C173.44 65.2425 172.945 65.6782 172.201 65.7402L169.135 66.1139C164.397 66.6115 162.043 68.6022 162.043 71.3402C162.043 74.0776 164.397 75.8823 167.711 75.8823ZM169.507 72.6156C167.928 72.6156 166.781 71.8688 166.781 70.7799C166.781 69.7536 167.68 68.9133 170.312 68.6022L173.348 68.2601V68.9133C173.348 71.0601 171.737 72.6156 169.507 72.6156Z" fill="#269C72"/>
<path d="M187.656 82.5711C193.262 82.5711 196.948 79.3974 196.948 74.3267V59.4869H192.209V68.6647C192.209 70.7489 190.753 72.1799 188.895 72.1799C187.13 72.1799 186.077 70.8425 186.077 68.9132V59.4869H181.369V69.7536C181.369 73.5489 183.568 76.0378 187.099 76.0378C189.267 76.0378 191.218 74.8244 192.209 72.8021H192.24V74.1711C192.24 76.9092 190.289 78.6197 187.254 78.6197C184.962 78.6197 182.794 77.6553 181.493 76.1934L179.758 79.6466C181.338 81.4197 184.312 82.5711 187.656 82.5711Z" fill="#269C72"/>
<mask id="mask0_113_13" style="mask-type:luminance" maskUnits="userSpaceOnUse" x="20" y="54" width="3" height="5">
<path d="M20.4419 54.5762H22.3002V58.0421H20.4419V54.5762Z" fill="white"/>
</mask>
<g mask="url(#mask0_113_13)">
<path d="M20.489 57.8787C20.4921 57.9267 20.5102 57.968 20.5441 58.0027C20.578 58.0373 20.6185 58.0561 20.6663 58.0598H21.8114C21.9596 57.4698 21.7642 56.1676 21.7539 56.1001C22.0721 57.0468 22.0376 57.7341 21.9977 58.0598H22.0836C22.1314 58.0561 22.1719 58.0367 22.2058 58.0027C22.2391 57.968 22.2578 57.9273 22.2609 57.8793C22.2736 57.7827 22.2796 57.6855 22.2802 57.5876C22.2796 57.4163 22.259 57.2468 22.2179 57.0803C22.1701 56.8834 22.1193 56.6883 22.0794 56.489L21.7316 54.7166H20.8974L20.6929 56.1506C20.6481 56.4623 20.6009 56.774 20.5284 57.0772C20.4654 57.3409 20.4515 57.6065 20.4866 57.8751" fill="black"/>
</g>
<path d="M21.3744 54.259C21.4156 54.259 21.4506 54.2444 21.4791 54.2153C21.5081 54.1867 21.5226 54.1515 21.5232 54.1102V48.2367C21.5244 48.2161 21.5214 48.196 21.5148 48.1766C21.5075 48.1571 21.4972 48.1401 21.4833 48.1249C21.4694 48.1097 21.4531 48.0982 21.4337 48.0903C21.415 48.0818 21.3956 48.0781 21.375 48.0781C21.3545 48.0781 21.3345 48.0818 21.3157 48.0903C21.297 48.0982 21.2807 48.1097 21.2667 48.1249C21.2528 48.1401 21.2419 48.1571 21.2353 48.1766C21.2286 48.196 21.2256 48.2161 21.2268 48.2367V54.1102C21.2268 54.1515 21.2413 54.1861 21.2704 54.2153C21.2994 54.2438 21.3339 54.2584 21.3744 54.259Z" fill="black"/>
<path d="M20.8145 54.4418C20.8145 54.5166 20.8284 54.5883 20.8568 54.6569C20.8852 54.7256 20.9258 54.7864 20.9778 54.8386C21.0304 54.8915 21.0909 54.9322 21.1593 54.9608C21.2276 54.9887 21.299 55.0033 21.3728 55.0033C21.4472 55.0033 21.5186 54.9887 21.5869 54.9608C21.6553 54.9322 21.7158 54.8915 21.7678 54.8386C21.8204 54.7864 21.861 54.7256 21.8894 54.6569C21.9172 54.5883 21.9318 54.5166 21.9318 54.4418C21.9318 54.3677 21.9172 54.296 21.8894 54.2273C21.861 54.1587 21.8204 54.0979 21.7678 54.045C21.7158 53.9928 21.6553 53.9521 21.5869 53.9235C21.5186 53.895 21.4472 53.881 21.3728 53.881C21.299 53.881 21.2276 53.895 21.1593 53.9235C21.0909 53.9521 21.0304 53.9928 20.9778 54.045C20.9258 54.0979 20.8852 54.1587 20.8568 54.2273C20.8284 54.296 20.8145 54.3677 20.8145 54.4418Z" fill="black"/>
<path d="M21.8053 54.383C21.8053 54.2846 21.7811 54.1928 21.7333 54.1077C21.6855 54.0221 21.6196 53.9534 21.5361 53.903C21.5736 53.9151 21.6087 53.9309 21.6426 53.951C21.6764 53.9704 21.7079 53.9935 21.7369 54.0196C21.766 54.0464 21.792 54.0755 21.8144 54.1071C21.8374 54.1387 21.8567 54.1727 21.8724 54.2086C21.8888 54.2444 21.9003 54.2821 21.9087 54.3204C21.9166 54.3587 21.9208 54.3976 21.9202 54.4371C21.9202 54.476 21.916 54.5148 21.9081 54.5531C21.8997 54.592 21.8882 54.6291 21.8718 54.6649C21.8561 54.7008 21.8367 54.7342 21.8138 54.7664C21.7908 54.798 21.7648 54.8272 21.7357 54.8533C21.7061 54.8794 21.6746 54.9025 21.6407 54.922C21.6075 54.9414 21.5718 54.9572 21.5343 54.9694C21.4974 54.9815 21.4593 54.99 21.4206 54.9943C21.3812 54.9979 21.3425 54.9979 21.3038 54.9943C21.2651 54.99 21.227 54.9821 21.1895 54.97C21.1526 54.9578 21.1169 54.942 21.083 54.9226C21.1247 54.9353 21.1677 54.9432 21.2113 54.9457C21.2548 54.9487 21.2984 54.9463 21.3419 54.9384C21.3849 54.9311 21.4266 54.9183 21.4665 54.9013C21.5071 54.8837 21.5446 54.8624 21.5797 54.8357C21.6147 54.8096 21.6462 54.7798 21.6746 54.7457C21.7025 54.7123 21.7266 54.6759 21.746 54.6364C21.766 54.5969 21.7805 54.5562 21.7902 54.513C21.8005 54.4705 21.8053 54.4267 21.8053 54.383Z" fill="black"/>
<mask id="mask1_113_13" style="mask-type:luminance" maskUnits="userSpaceOnUse" x="19" y="39" width="32" height="15">
<path d="M19.8291 39.9587H50.8999V53.6428H19.8291V39.9587Z" fill="white"/>
</mask>
<g mask="url(#mask1_113_13)">
<path d="M19.9985 47.7141C19.9495 47.739 19.9102 47.7755 19.8824 47.8229C19.8539 47.8709 19.8406 47.9225 19.8424 47.9778C19.8437 48.0331 19.8606 48.0841 19.8914 48.1297C19.9223 48.1759 19.9634 48.2099 20.0142 48.2318L26.1797 50.8951L32.339 53.5565C34.3534 53.3499 36.3684 53.3499 38.3834 53.5565L44.5422 50.8951L50.7082 48.2318C50.759 48.2099 50.8002 48.1759 50.8316 48.1297C50.8625 48.0841 50.8788 48.0331 50.8806 47.9778C50.8818 47.9225 50.8685 47.8709 50.8407 47.8229C50.8123 47.7755 50.7735 47.739 50.7239 47.7141L35.4895 39.9965C35.4036 39.9533 35.3183 39.9533 35.233 39.9965L19.9985 47.7141Z" fill="#111111"/>
</g>
<mask id="mask2_113_13" style="mask-type:luminance" maskUnits="userSpaceOnUse" x="19" y="39" width="32" height="10">
<path d="M19.8291 39.9587H50.8999V48.5094H19.8291V39.9587Z" fill="white"/>
</mask>
<g mask="url(#mask2_113_13)">
<path d="M35.4894 40.4261C35.4035 40.3829 35.3182 40.3829 35.2329 40.4261L20.483 48.4323C20.4606 48.4439 19.9573 48.1692 19.9391 48.1832C19.9216 48.1674 19.9059 48.1498 19.8932 48.1309C19.8798 48.1115 19.869 48.0908 19.8611 48.069C19.8526 48.0471 19.8472 48.024 19.8448 48.0009C19.8417 47.9778 19.8423 47.9547 19.8454 47.931C19.8484 47.9079 19.8544 47.8854 19.8629 47.8636C19.8714 47.8417 19.8823 47.8216 19.8962 47.8022C19.9095 47.7834 19.9252 47.7663 19.9428 47.7512C19.9609 47.736 19.9803 47.7232 20.0008 47.7129L35.2329 39.9965C35.3182 39.9533 35.4035 39.9533 35.4894 39.9965L50.7238 47.7141C50.745 47.7244 50.7644 47.7372 50.7819 47.7524C50.7994 47.7676 50.8152 47.7846 50.8291 47.8034C50.8424 47.8229 50.8539 47.8429 50.8624 47.8648C50.8708 47.8867 50.8769 47.9091 50.8799 47.9322C50.8829 47.9559 50.8829 47.979 50.8805 48.0021C50.8775 48.0258 50.8726 48.0483 50.8642 48.0702C50.8557 48.092 50.8454 48.1127 50.8321 48.1321C50.8188 48.151 50.8037 48.1686 50.7861 48.1844C50.7686 48.1692 50.2689 48.4439 50.2465 48.4335L35.4894 40.4261Z" fill="#269C72"/>
</g>
<path d="M26.1616 49.7697V54.8866C26.1616 55.3381 26.5433 55.6626 26.9232 55.5344C28.6799 54.9419 30.4784 54.5384 32.3192 54.324C34.3342 54.0894 36.3486 54.0894 38.3636 54.324C40.2056 54.5384 42.0058 54.9419 43.7644 55.5344C44.1449 55.6626 44.5254 55.3381 44.5254 54.8866V49.7697C44.5254 49.4732 44.3548 49.2088 44.1055 49.1232C43.4032 48.8746 42.6912 48.6571 41.9708 48.4694C41.2497 48.2816 40.5226 48.1248 39.7882 47.9984C39.0544 47.8727 38.3164 47.7779 37.5742 47.7147C36.8319 47.6515 36.0891 47.6199 35.3444 47.6199C34.5991 47.6199 33.8563 47.6515 33.114 47.7147C32.3718 47.7779 31.6338 47.8727 30.9 47.9984C30.1656 48.1248 29.4385 48.2816 28.7174 48.4694C27.997 48.6571 27.285 48.8746 26.5826 49.1232C26.3346 49.2107 26.1622 49.4732 26.1622 49.7697" fill="#111111"/>
<path d="M43.601 50.0729C42.9017 49.8256 42.194 49.6087 41.4765 49.4215C40.7597 49.2344 40.0356 49.0782 39.3055 48.9524C38.5753 48.826 37.8409 48.7313 37.1023 48.6675C36.3643 48.6036 35.6245 48.5714 34.8841 48.5702C34.143 48.569 33.4032 48.5988 32.6646 48.6602C31.926 48.7215 31.1916 48.8139 30.4608 48.9378C29.7301 49.0612 29.006 49.2155 28.2879 49.4003C27.5705 49.585 26.8615 49.7995 26.1616 50.0444V49.7709C26.1616 49.4744 26.3322 49.2101 26.582 49.1244C27.2844 48.8765 27.9964 48.6583 28.7168 48.4706C29.4379 48.2828 30.165 48.126 30.8994 47.9997C31.6332 47.8739 32.3712 47.7791 33.1134 47.7165C33.8557 47.6533 34.5985 47.6217 35.3432 47.6217C36.0885 47.6217 36.8313 47.6533 37.5736 47.7165C38.3158 47.7791 39.0538 47.8739 39.7876 47.9997C40.522 48.126 41.2491 48.2828 41.9702 48.4706C42.6906 48.6583 43.4026 48.8765 44.1049 49.1244C44.353 49.2119 44.5248 49.4744 44.5248 49.7709V54.8866C44.5248 55.2348 44.2985 55.5058 44.0203 55.5538V50.7182C44.0203 50.4217 43.8503 50.1568 43.601 50.0717" fill="#269C72"/>
</svg>
